<svg xmlns:xlink="http://www.w3.org/1999/xlink" xmlns="http://www.w3.org/2000/svg" width="234" height="235.53931554399063" viewBox="0 0 234 235.53931554399063" class="css-1j8o68f"><defs id="SvgjsDefs1001"></defs><g id="SvgjsG1007" featurekey="rootContainer" transform="matrix(1.2663258622586038,0,0,1.2663258622586038,0,-0.002862172981894245)" fill="#628C7C"><path xmlns="http://www.w3.org/2000/svg" d="M27.983 157.03c-.229-.339-.566-.793-.807-1.141.235.361.5.733.807 1.141zM4.683 107.878l.737 2.899c.321 4.445 1.616 8.985 3.339 13.311l-.321-2.065c-.455-1.248-.655-1.961-.77-2.046-.066-.066-.067.191.039.762-1.095-5-2.027-9.749-2.751-14.651-.142.348-.378.31-.273 1.79zM4.53 102.939l-.003.111.428 3.037c.017-.025.03-.076.046-.117l-.471-3.031z" fill="#628C7C"></path><path xmlns="http://www.w3.org/2000/svg" d="M125.305 180.632l2.14-.828c1.441-.523 2.834-1.169 4.24-1.796a89.147 89.147 0 0 0 15.754-9.223c8.046-5.915 15.007-13.019 20.571-21.02 5.631-7.96 9.858-16.8 12.735-26.093 5.643-18.619 5.519-39.248-1.271-59.004-7.467-21.375-22.25-39.15-40.75-50.155a88.724 88.724 0 0 0-14.361-6.919c-1.246-.435-2.474-.92-3.73-1.308l-3.772-1.139-3.814-.942c-1.271-.307-2.562-.513-3.84-.772A92.651 92.651 0 0 0 93.706.004C88.524-.03 83.364.436 78.26 1.256l-1.912.329c-.639.102-1.275.219-1.904.373l-3.79.855-3.749 1.04c-1.251.347-2.471.8-3.709 1.195a97.388 97.388 0 0 0-14.362 6.284c-9.278 4.997-17.84 11.635-25.396 19.672-2.922 3.069-6.091 7.155-9.102 11.873a91.038 91.038 0 0 0-7.949 15.747c-2.195 5.611-3.793 11.426-4.808 16.85C.523 80.897.165 85.935 0 90.012c.037 1.37.072 2.609.143 3.725.109 1.116.221 2.11.337 2.993.201 1.769.548 3.087.831 4.056.582 1.937 1.104 2.47 1.544 2.316.88-.321 1.444-3.343 1.493-3.832.444-3.247.812-6.255 1.18-9.364.156-1.555.428-3.127.601-4.769.222-1.637.511-3.331.778-5.127.685-3.568 1.468-7.541 2.949-12.042a77.254 77.254 0 0 1 6.311-14.233c-.334.587-.633 1.102-.892 1.54-.366.633-.62 1.132-.834 1.479-.415.697-.575.828-.519.499.061-.326.313-1.124.78-2.251.508-1.106 1.148-2.584 2.026-4.239 1.729-3.325 4.328-7.402 7.395-11.229.79-.938 1.536-1.919 2.376-2.808.833-.895 1.656-1.784 2.482-2.634.862-.819 1.71-1.614 2.537-2.371.82-.764 1.695-1.415 2.491-2.061 4.72-3.62 9.981-7.44 15.965-10.789 1.504-.821 3.001-1.698 4.589-2.451.789-.386 1.564-.809 2.372-1.178l2.441-1.097a36.112 36.112 0 0 1 2.491-1.047l2.532-1.009 2.597-.895 1.304-.454 1.329-.391 2.67-.785c.9-.235 1.811-.438 2.718-.662 1.808-.485 3.669-.758 5.514-1.127 3.718-.574 7.486-1.021 11.257-1.089 3.769-.163 7.528.083 11.221.454 1.835.279 3.677.456 5.466.861l2.681.545 2.623.687 1.31.342 1.304.403 2.645.806 2.66.934 1.352.472 1.343.542c3.63 1.378 7.285 3.177 11.017 5.305 19.107 11.478 33.218 29.389 39.781 50.132a90.291 90.291 0 0 1 4.012 32.602c-.686 11.153-3.564 22.415-8.801 32.918-5.51 11.128-12.028 20.167-19.705 27.471-1.4 1.334-2.956 2.539-4.491 3.756-.769.606-1.589 1.144-2.376 1.711-.793.561-1.579 1.121-2.397 1.611l-2.389 1.497c-.795.473-1.598.901-2.368 1.341-1.527.904-3.06 1.619-4.444 2.351a104.836 104.836 0 0 1-12.79 5.354 104.644 104.644 0 0 1-12.205 3.209c8.975-1.655 15.399-3.714 24.498-8.151 2.984-1.578 2.055-.842-.136.574-1.126.644-2.563 1.475-3.999 2.22-1.457.693-2.876 1.387-3.923 1.82-.892.385-2.124.643-3.346.898-1.226.25-2.471.402-3.374.753l-1.497.436-1.491.381-2.964.797c-2.005.443-4.042.994-6.286 1.318-1.914.381-1.759-.299-2.712-.15-6.085.727-10.902 1.426-14.852.924l-2.188-.26c-.712-.094-1.404-.235-2.086-.347-1.364-.237-2.683-.449-3.964-.772l-2.456-.505c-.824-.174-1.649-.397-2.511-.582-1.076-.197-2.198-.393-3.297-.68-7.955-1.794-16.87-5.311-24.414-9.955l.066.116c4.075 2.556 8.177 4.843 12.584 7.158-.295-.185-.404-.298-.333-.301.13-.015.817.249 2.06.712l1.758 1.083c-4.404-1.447-8.672-3.39-12.233-5.99l-2.673-1.309c-1.18-.885-1.006-1.029-1.163-1.352-.844-.552-1.734-1.06-2.572-1.65.378.4 1.031.916 1.77 1.51.745.584 1.569 1.258 2.377 1.835l3.055 2.098c11.553 6.4 23.744 9.945 35.831 11.02.942-.071 1.598-.125 2.845-.005.938.149 1.892.256 2.838.336.887.052 1.774.033 2.659.02l2.648-.033c.615-.025 1.234-.113 1.863-.17l.051-.007c.988-.149.684-.233.066-.291a28.331 28.331 0 0 1-1.463-.091c.427.027 1.024.047 1.463.091.837.028 1.77.03 2.858-.008a139.13 139.13 0 0 1 2.047-.284c-.519.077-1.045.158-1.574.24-.157.015-.322.032-.474.044l-2.358.243-.028.003h.007l-.596.061-.857.124c2.022-.137 4.043-.217 6.044-.493 1.001-.127 2.009-.205 3.004-.371l2.985-.5a29.793 29.793 0 0 0 2.474-.57c2.847-.687 5.596-1.626 7.434-1.8l2.061-.679-.415.076.792-.201c.718-.252 1.454-.461 2.165-.742zm20.262-11.197l4.091-2.674c-1.352 1.317-2.77 2.32-4.116 3.199-.667.447-1.331.844-2 1.181a70.11 70.11 0 0 1-1.927.973c1.17-.852 2.585-1.713 3.952-2.679z" fill="#628C7C"></path><path xmlns="http://www.w3.org/2000/svg" d="M58.888 177.982c.224.141.553.322 1.01.535-.344-.179-.671-.357-1.01-.535zM19.272 158.767c2.418 4.979 5.726 7.287 10.916 9.1 5.014 1.751 8.945 2.042 13.705-.097 1.486 1.156 3.237 2.895 4.694 3.661 1.019.528 2.419 1.281 3.899 1.964 1.504.638 3.014 1.346 4.261 1.767 2.479.871 3.635 1.164.544-.244-4.626-2.174-8.312-4.268-11.752-6.504-.412-.277-.82-.554-1.227-.833l.087-.039c-2.444-4.893-7.029-8.306-12.16-9.717a92.218 92.218 0 0 1-1.81-1.724 20.09 20.09 0 0 0 2.248-.127c-1.047-7.914-7.416-14.342-15-16.09-.188-.355-.372-.712-.566-1.063.178.351.363.705.545 1.057a17.984 17.984 0 0 0-5.882-.384c.668 5.498 3.045 8.757 7.363 12.16 2.696 2.124 5.159 3.525 7.966 4.125.025.037.046.07.074.109-.024-.036-.045-.072-.07-.108 1.024.218 2.103.315 3.247.317.362.354.723.705 1.097 1.074.212.196.304.361.371.528a19.967 19.967 0 0 0-3.759-.569l-.078-.099.064.099c-.124-.007-.249-.002-.374-.006a23.76 23.76 0 0 1-1.307-1.368c.227.263.439.541.665.773l.642.595c-2.858-.104-5.74.403-8.403 1.643zM13.963 132.726c2.976 4.624 5.992 7.302 11.397 8.494 1.985-9.798-4.661-20.13-14.4-22.388-1.16 5.414.031 9.27 3.003 13.894zM23.249 124.886c5.065-8.615 2.145-20.551-6.329-25.854-2.858 4.743-2.993 8.772-1.685 14.114 1.309 5.34 3.288 8.855 8.014 11.74z" fill="#628C7C"></path></g><g id="SvgjsG1008" featurekey="nameLeftFeature-0" transform="matrix(1.2561728630756652,0,0,1.2561728630756652,33.032223701715225,101.05811932609265)" fill="#354020"><path d="M0.84746 17.729 l0.47441 -0.55932 c0.15238 -0.15254 0.30492 -0.13559 0.44051 -0.033898 c0.32203 0.27119 1.6441 1.7119 3.5254 1.7119 c2.2373 0 3.2203 -1.2203 3.2203 -2.4237 c0 -1.7288 -1.9663 -2.1864 -3.7459 -2.8305 c-2.0169 -0.76271 -3.7458 -1.678 -3.7458 -3.7119 c0 -1.6949 1.2373 -3.5593 4.2712 -3.5593 c2.0847 0 3.5932 1.2542 4 1.6102 c0.13559 0.11864 0.18644 0.27119 0.084912 0.40678 l-0.44068 0.57627 c-0.10169 0.13559 -0.23729 0.16949 -0.38983 0.067797 c-0.33898 -0.25424 -1.5592 -1.3898 -3.2371 -1.3898 c-1.8985 0 -2.9663 1 -2.9663 2.288 c0 1.4915 1.5086 2.0169 3.4917 2.7288 c1.8136 0.67797 4 1.5932 4 3.8305 c0 1.9661 -1.8303 3.6608 -4.5253 3.6608 c-2.4746 0 -4 -1.61 -4.3898 -1.9998 c-0.11864 -0.11864 -0.22034 -0.22034 -0.067797 -0.37271 z M20.987966101694916 6.441000000000001 c0.15254 0 0.22051 0.067797 0.22051 0.22034 l0 0.84746 c0 0.13559 -0.067797 0.22034 -0.22034 0.22034 l-4.3729 0 l0 12.034 c0 0.15254 -0.067797 0.23712 -0.20339 0.23712 l-0.67797 0 c-0.30508 0 -0.45763 -0.18644 -0.45763 -0.47441 l0 -11.797 l-4.3729 0 c-0.15254 0 -0.23729 -0.084746 -0.23729 -0.22034 l0 -0.83051 c0 -0.16949 0.084746 -0.23729 0.23729 -0.23729 l10.085 0 z M31.48369661016949 7.728999999999999 l-7.3556 0.00049656 l0 4.9659 l4.5424 0 c0.15254 0 0.23729 0.067797 0.23729 0.23729 l0 0.81339 c0 0.15254 -0.084746 0.22034 -0.23729 0.22034 l-4.5424 0 l0 4.7458 l7.3559 0 c0.15254 0 0.23712 0.084746 0.23712 0.23712 l0 0.81356 c0 0.16949 -0.067797 0.23712 -0.23729 0.23712 l-8.4746 0 c-0.15254 0 -0.22034 -0.08458 -0.22034 -0.22017 l0 -13.119 c0 -0.15254 0.084746 -0.22034 0.22034 -0.22034 l8.4746 0 c0.15254 0 0.23712 0.084746 0.23712 0.22034 l0 0.84746 c0 0.13559 -0.067797 0.22034 -0.23729 0.22034 z M45.70922033898305 6.441000000000001 c0.11864 0 0.23763 0.11881 0.15287 0.30525 l-6.2544 13.153 c-0.050847 0.10153 -0.13559 0.16933 -0.25424 0.16933 l-0.13559 0 c-0.10169 0 -0.18644 -0.067797 -0.23729 -0.16933 l-6.2542 -13.169 c-0.084746 -0.16966 0.033898 -0.28831 0.15254 -0.28831 l1.1356 0 c0.13559 0 0.18644 0.10169 0.25424 0.27119 l5.0168 10.864 l5.0339 -10.864 c0.067797 -0.16949 0.11864 -0.27119 0.25424 -0.27119 l1.1356 0 z M48.30680169491525 6.441000000000001 l-0.86441 0 c-0.15254 0 -0.22034 0.067797 -0.22034 0.22034 l0 13.119 c0 0.13559 0.067797 0.22017 0.22034 0.22017 l0.88136 0 c0.11864 0 0.20339 -0.08458 0.20339 -0.22017 l0 -13.119 c0 -0.15254 -0.084746 -0.22034 -0.22034 -0.22034 z M63.498084745762704 19.77983 c0.067797 0.13559 0.034229 0.22017 -0.11831 0.22017 l-1.0339 0 c-0.11864 0 -0.18644 -0.050847 -0.23729 -0.15254 l-1.1864 -2.5254 l-8.1864 0 l-1.1864 2.5254 c-0.050847 0.10169 -0.11848 0.15254 -0.22034 0.15254 l-1.0678 0 c-0.11864 0 -0.18644 -0.08458 -0.11864 -0.22017 l6.3558 -13.271 c0.067797 -0.11864 0.11864 -0.15254 0.20322 -0.15254 l0.23745 0 c0.084746 0 0.15254 0.033898 0.20339 0.15254 z M53.31158474576271 16.1019 l7.0339 0 l-3.5254 -7.4576 z" fill="#354020"></path></g><g id="SvgjsG1009" featurekey="nameRightFeature-0" transform="matrix(1.2685960432288768,0,0,1.2685960432288768,111.30203298596817,100.93748777441867)" fill="#BE758F"><path d="M21.254610169491524 6.441000000000001 c0.18644 0 0.33915 0.15238 0.33915 0.32186 l0 12.898 c0 0.16949 -0.13559 0.33881 -0.3222 0.33881 l-1.7456 0 c-0.20339 0 -0.33898 -0.15238 -0.33898 -0.33881 l0 -8.2203 l-4.9492 7.8305 c-0.10186 0.16949 -0.20356 0.23729 -0.3561 0.23729 l-0.10169 0 c-0.15254 0 -0.25424 -0.067797 -0.35593 -0.23729 l-4.9322 -7.8475 l0 8.2375 c0 0.16949 -0.15254 0.33881 -0.33898 0.33881 l-1.7458 0 c-0.18644 0 -0.33898 -0.15238 -0.33898 -0.33881 l0 -12.898 c0 -0.16949 0.13559 -0.32203 0.33898 -0.32203 l1.4576 0 c0.16949 0 0.28814 0.067797 0.38983 0.22034 l5.5763 8.8134 l5.5932 -8.8134 c0.084746 -0.15254 0.20339 -0.22034 0.38983 -0.22034 l1.4407 0 z M37.03340677966102 19.62712 c0.10169 0.20339 0.034229 0.37271 -0.20305 0.37271 l-1.9831 0 c-0.16949 0 -0.27119 -0.08458 -0.33898 -0.22017 l-0.91525 -1.9322 l-6.5256 0 l-0.91525 1.9322 c-0.067797 0.13559 -0.18644 0.22017 -0.33898 0.22017 l-2 0 c-0.20339 0 -0.32203 -0.16933 -0.22034 -0.37271 l6.3898 -13.102 c0.067797 -0.11881 0.15238 -0.16966 0.23712 -0.16966 l0.20339 0 c0.10169 0 0.16949 0.050847 0.23729 0.16966 z M28.101906779661018 15.6441 l4.4576 0 l-2.2203 -4.7288 z M54.22071186440678 6.441000000000001 c0.18644 0 0.33915 0.15238 0.33915 0.32186 l0 12.898 c0 0.16949 -0.13559 0.33881 -0.3222 0.33881 l-1.7456 0 c-0.20339 0 -0.33898 -0.15238 -0.33898 -0.33881 l0 -8.2203 l-4.9492 7.8305 c-0.10186 0.16949 -0.20356 0.23729 -0.3561 0.23729 l-0.10169 0 c-0.15254 0 -0.25424 -0.067797 -0.35593 -0.23729 l-4.9322 -7.8475 l0 8.2375 c0 0.16949 -0.15254 0.33881 -0.33898 0.33881 l-1.7458 0 c-0.18644 0 -0.33898 -0.15238 -0.33898 -0.33881 l0 -12.898 c0 -0.16949 0.13559 -0.32203 0.33898 -0.32203 l1.4576 0 c0.16949 0 0.28814 0.067797 0.38983 0.22034 l5.5763 8.8134 l5.5932 -8.8134 c0.084746 -0.15254 0.20339 -0.22034 0.38983 -0.22034 l1.4407 0 z M69.99950847457627 19.62712 c0.10169 0.20339 0.034229 0.37271 -0.20305 0.37271 l-1.9831 0 c-0.16949 0 -0.27119 -0.08458 -0.33898 -0.22017 l-0.91525 -1.9322 l-6.5256 0 l-0.91525 1.9322 c-0.067797 0.13559 -0.18644 0.22017 -0.33898 0.22017 l-2 0 c-0.20339 0 -0.32203 -0.16933 -0.22034 -0.37271 l6.3898 -13.102 c0.067797 -0.11881 0.15238 -0.16966 0.23712 -0.16966 l0.20339 0 c0.10169 0 0.16949 0.050847 0.23729 0.16966 z M61.068008474576274 15.6441 l4.4576 0 l-2.2203 -4.7288 z" fill="#BE758F"></path></g></svg>